PathFileType	4	(X/Y/Z)	43_1_9_p1_0-265_filt_butterworth.trc
DataRate	CameraRate	NumFrames	NumMarkers	Units	OrigDataRate	OrigDataStartFrame	OrigNumFrames
60.0	60.0	6	27	m	60.0	66	265
Frame#	Time	RHip			RKnee			RAnkle			RBigToe			RSmallToe			RHeel			LHip			LKnee			LAnkle			LBigToe			LSmallToe			LHeel			Neck			Head			Nose			RShoulder			RElbow			RWrist			RThumb			RIndex			RPinky			LShoulder			LElbow			LWrist			LThumb			LIndex			LPinky			
		X1	Y1	Z1	X2	Y2	Z2	X3	Y3	Z3	X4	Y4	Z4	X5	Y5	Z5	X6	Y6	Z6	X7	Y7	Z7	X8	Y8	Z8	X9	Y9	Z9	X10	Y10	Z10	X11	Y11	Z11	X12	Y12	Z12	X13	Y13	Z13	X14	Y14	Z14	X15	Y15	Z15	X16	Y16	Z16	X17	Y17	Z17	X18	Y18	Z18	X19	Y19	Z19	X20	Y20	Z20	X21	Y21	Z21	X22	Y22	Z22	X23	Y23	Z23	X24	Y24	Z24	X25	Y25	Z25	X26	Y26	Z26	X27	Y27	Z27	
66	1.1	0.2454949639994262	0.45328721535413496	1.1433507622320966	0.19648790911273611	0.5349591166745845	1.603690394036925	0.154963258938923	0.4931462284308582	1.9711829501415776	0.1444600760282715	0.3634073552720498	1.9948423881964565	0.2118517227703875	0.36345665008171757	1.9942377467429506	0.12800170367356814	0.5302015833758196	2.0284552051770968	0.02541468608536282	0.4384957688239849	1.1379926119582016	-0.015573742227792068	0.4936025223652573	1.5728381278251864	-0.028678408479045032	0.5110191020872065	1.995674506137324	-0.00411328642117778	0.3557771213929116	1.986326944246129	-0.06236041707385653	0.3877904455106689	1.9969098820757456	-0.032360639718929635	0.5594943459807811	2.054577248616693	0.15931880016947828	0.4599016720048439	0.6141229563984721	0.17688655209065335	0.4274056372107624	0.3770216902290036	0.18565191044063256	0.3354332647753488	0.49475800593481645	0.3209242248647188	0.4600303515827876	0.6773924218539447	0.389886780089223	0.45876338966050034	0.9275491771010164	0.3272409436019428	0.2766213477397207	0.7783073136869701	0.27821269621664596	0.21781047007997908	0.6992912403407069	0.28087022834267206	0.1870561832939918	0.6999810178371718	0.28360855985283306	0.1658196431160662	0.7467723533064957	-0.010429435976952946	0.4304895665052704	0.6664390772197493	-0.08415532660508317	0.4082669387398307	0.9043485592178814	0.030455067754249488	0.24229396774262324	0.7764494303879063	0.07175483679361482	0.15223144507713798	0.6978064159393358	0.08220241268744877	0.14046231294158804	0.6947943364690758	0.08455095275238429	0.14508735657748834	0.7365638264134158
67	1.1166666666666667	0.2455641266563488	0.4531748085033115	1.144579705252372	0.1957862861031046	0.5361073994809256	1.6059370315880261	0.1549349990269979	0.49327546145607065	1.9712419374153232	0.14443483267932425	0.36350313275093127	1.9947429800831933	0.2097574555012814	0.36736405576581604	1.9978091518847552	0.12779606932634796	0.53034973982606	2.0304021202384694	0.026103831177283914	0.43854877072662124	1.1397282405647684	-0.013655163277623901	0.493783907151688	1.5731878698423682	-0.029170620092572423	0.5110315889835617	1.9972232591500543	-0.004088334036240771	0.355506918276626	1.9864274199873697	-0.06236369989375561	0.38780241661640474	1.9969137842415416	-0.03231137494223514	0.5606699278526956	2.055348927802436	0.15915913435469534	0.4602247960786507	0.6156893293376098	0.17683568115607315	0.4237729366090492	0.37873568517749323	0.1855143702949954	0.33607532999303596	0.49669591549583497	0.3172160012827044	0.4689075302418316	0.6795474467113773	0.3939693835234925	0.44730614847356587	0.9224383953409996	0.3243728474138786	0.28466106926379964	0.7682451669629726	0.2858224604203971	0.23800874584204743	0.6773192322734144	0.2938866270597985	0.2055399811612837	0.6766552982692957	0.29961173544737424	0.16232206178163638	0.7208031851715221	-0.010399465861148692	0.43125434793098294	0.6663592314367225	-0.08098832874458806	0.40292038043616984	0.902817428379737	0.030734759033858264	0.24990041594874604	0.771648181894253	0.06156881850698013	0.16591644975455647	0.6793423907917401	0.07279226142876127	0.15736195236784417	0.677671458412007	0.08231985342676068	0.14818825569463165	0.723563217270909
68	1.1333333333333333	0.24576580213651633	0.4534287392355624	1.145590511291949	0.1958016778397476	0.5355785141111415	1.6073858303883712	0.15492384966261988	0.49332336697654466	1.9712694411560396	0.14440875685083296	0.36351363682113946	1.9945974404575308	0.20741828157853998	0.3719267589169093	2.0002811136204426	0.12755486819109887	0.5303941966116005	2.029853827367956	0.026686434322893374	0.43787604150385706	1.1407586175363216	-0.011482694581485611	0.4924362342576642	1.5735536914456516	-0.029548005346430404	0.5110674092519544	1.998400117399769	-0.0040978244451830865	0.3553293466100613	1.9863464146055478	-0.06236594159819014	0.3878245117275195	1.9969161681543002	-0.03230585667759182	0.5606617011764483	2.055245549345049	0.15892422537035888	0.4605809283335267	0.6173134582449021	0.17628395468877217	0.42011894204132827	0.37963324142551436	0.1853813295127669	0.33605173067384386	0.49838444683371863	0.3116400871983393	0.4804698476534937	0.6819047454842395	0.3981546749771444	0.4366164636980537	0.9177039251725897	0.3213050376764655	0.2914772558107583	0.7611091556934464	0.29245262511625336	0.2574884249138014	0.6596787635615416	0.3063158974128279	0.22262447409054	0.6561971357663544	0.3163135194060838	0.16950255293530508	0.7025151673015344	-0.01042793886926864	0.4339447393855845	0.6667899535334997	-0.07935877349887346	0.3960412859469461	0.9013609574945345	0.029133171919443437	0.2582195946480818	0.7685872226147195	0.04840552773115794	0.1848637765309455	0.6660766966213644	0.06002674343220022	0.17373675474708797	0.6645973257358092	0.08033253881956832	0.15230678296734165	0.7154922583673123
69	1.15	0.24589101937750932	0.45411234288670255	1.1465769899324207	0.19601823893923706	0.5347758699827762	1.6082026449570919	0.15493091023502162	0.4933050858903417	1.971260693425319	0.14438637758703124	0.36338451120361137	1.9947088807456186	0.20618022455385174	0.37443525903566605	2.0005771980529747	0.12732968115243112	0.5304663178473433	2.028305678009927	0.026449771891756388	0.4374115553612217	1.1418064441765703	-0.010026743688383381	0.4897857299926991	1.5740949724722708	-0.029702088603912477	0.5110985346387543	1.998874412288646	-0.004086713835339351	0.35529011714440895	1.9862776523658128	-0.06235894040259499	0.3878404281868859	1.9969101442265067	-0.032341738842010845	0.5603645866098445	2.0547685172734442	0.15870552440185354	0.4609608742576878	0.6182563435176944	0.17549579818429667	0.4171298844488595	0.37976824189044533	0.18531142641875842	0.3337382460544002	0.4996843044537836	0.30621263171205704	0.48910423632479366	0.6836019857949627	0.4009568003708986	0.43050793110335145	0.9151330606714623	0.3194789574262205	0.2971927982158127	0.7564029128091986	0.2963882730225907	0.2720089036984414	0.6480560931460301	0.3151992525154208	0.23409277186587998	0.6410969344218579	0.3273178045600785	0.1850984470327958	0.6942423205808459	-0.010514955963245047	0.43809162808419855	0.6676417183734452	-0.07839568056600929	0.3857723151487044	0.8996484192390849	0.026620606584071695	0.2672650100963012	0.7656472754065701	0.03492452536819124	0.20812472482379832	0.6588605452228083	0.04515440204822326	0.1883051015469216	0.6563261291416084	0.07937556752918694	0.15766512913604172	0.7092882541246295
70	1.1666666666666667	0.24595035736657866	0.4547805759293571	1.1473080274630845	0.19615906911064487	0.5343353889643847	1.6081748768356812	0.15494552714150275	0.4932780309385194	1.9712325181662154	0.14439620839901657	0.3633240931920986	1.995811543215308	0.20661383931596605	0.3737164739833439	1.9990931676505468	0.12708742511504892	0.5305802168523879	2.0272607331339163	0.025793486355518598	0.4372713542486222	1.1428462534136896	-0.010290254721228884	0.48804105022890154	1.5749766891207113	-0.029716741858066456	0.5111116701894582	1.9988960622049414	-0.004013261123193158	0.3554367426708902	1.9863284109262738	-0.062331274866808555	0.3878508531764902	1.996898013419955	-0.03245476316259292	0.5601795829465647	2.054442748924643	0.15858424480054764	0.4613434176756468	0.6184846357432872	0.17473783772080906	0.4138163595590231	0.37959947225534574	0.18536830169386875	0.3278900601521291	0.5002548674283958	0.30237015045092563	0.49281874786005603	0.6842936766835143	0.40246109361190047	0.4279679127663847	0.9143412831864752	0.31984775724730474	0.303048066329748	0.7523772013205028	0.29660128172306693	0.2810101456884959	0.6426910013479236	0.3177856996849072	0.24197248428227952	0.6334570905975329	0.33134119346193214	0.20352981786811958	0.691413211600606	-0.010399846784614517	0.44226291927229083	0.6685763080699044	-0.07706333380954697	0.37179087051390913	0.8959171866752768	0.024799060642313013	0.2755634266254291	0.7618041799074647	0.02579520677595247	0.231831794597857	0.6559180692992753	0.03214927959700734	0.1993637815699336	0.6517211415244	0.07908474702938297	0.16377113153815093	0.7020286828692809
71	1.1833333333333331	0.24600141482603244	0.4550428175321066	1.1472490145579057	0.19618873333012088	0.5342745889028204	1.6069767047004782	0.15495130626091633	0.49329732648277314	1.9712100785652251	0.14448990834104317	0.3639474846743927	1.9983739371286577	0.2079947867314787	0.3711249960289972	1.9969904192835795	0.1268071139363905	0.5307154681006014	2.026911787265414	0.025246772890544625	0.4366054090767391	1.1434875095232444	-0.012232291600058905	0.48857753064695036	1.5758405002879021	-0.02970437265425882	0.5111251242430209	1.998808175305475	-0.00389298352547594	0.3557874026308937	1.9865212670881753	-0.062285617083173164	0.3878575837976051	1.9968876639369493	-0.032697995977893905	0.5601984246788005	2.05500785877309	0.15859882752611895	0.4616142955414939	0.6186524684178225	0.1740302055730124	0.40945264303554313	0.3796040003657158	0.18556593800740995	0.31994581697483876	0.5002251577320078	0.30047874154901444	0.49342471528354276	0.6841315125313895	0.4039208107204296	0.42636282679430154	0.9144276076305279	0.32222479902442325	0.3096696814698018	0.7483856782975427	0.2938468685724669	0.2874336005949057	0.6417453401123807	0.3146278954668238	0.25050436825306593	0.6320202632665552	0.33204182444733915	0.21943959281750994	0.6876645707840253	-0.00952762510561121	0.4457499664760912	0.6692612426310877	-0.07575503914387646	0.3574499364489745	0.8896951984936974	0.025034200407544713	0.2817661275959251	0.7575186443816099	0.022844357288753517	0.25227604274064014	0.6547663970830297	0.025010631914320916	0.20694451444100467	0.6484346478516025	0.0782316336323404	0.16953948741577404	0.6932849522465461
